<svg width="115" height="40" viewBox="0 0 115 40" fill="none" xmlns="http://www.w3.org/2000/svg">
<path fill-rule="evenodd" clip-rule="evenodd" d="M36.7341 32.4054L24.0252 19.5245L36.6223 6.75684H30.2929L19.9184 17.2717H7.65862L3.38965 21.753L3.42392 21.7772H19.9184L30.4047 32.4054H36.7341Z" fill="url(#paint0_linear_722_6146)"/>
<path d="M59.4401 8.1198V12.027H55.6677V8.1198H53.0928V18H55.6677V14.018H59.4401V18H62.0149V8.1198H59.4401ZM68.1854 7.9701C65.1764 7.9701 63.3351 9.87129 63.3351 13.0599C63.3351 16.2485 65.1764 18.1497 68.1854 18.1497C71.1943 18.1497 73.0207 16.2485 73.0207 13.0599C73.0207 9.87129 71.1943 7.9701 68.1854 7.9701ZM68.1854 9.99105C69.6075 9.99105 70.386 11.0389 70.386 13.0599C70.386 15.0808 69.6075 16.1287 68.1854 16.1287C66.7483 16.1287 65.9698 15.0808 65.9698 13.0599C65.9698 11.0389 66.7483 9.99105 68.1854 9.99105ZM78.7737 7.9701C75.7648 7.9701 73.9234 9.87129 73.9234 13.0599C73.9234 16.2485 75.7648 18.1497 78.7737 18.1497C81.7827 18.1497 83.609 16.2485 83.609 13.0599C83.609 9.87129 81.7827 7.9701 78.7737 7.9701ZM78.7737 9.99105C80.1959 9.99105 80.9743 11.0389 80.9743 13.0599C80.9743 15.0808 80.1959 16.1287 78.7737 16.1287C77.3366 16.1287 76.5582 15.0808 76.5582 13.0599C76.5582 11.0389 77.3366 9.99105 78.7737 9.99105ZM91.1585 18H94.0776L90.5447 12.1318L93.898 8.1198H91.0387L87.5058 12.506V8.1198H84.931V18H87.5058V15.2156L88.7034 13.7635L91.1585 18ZM98.4313 7.9701C95.7218 7.9701 94.1798 9.33237 94.1798 11.1886C94.1798 13.1198 95.6918 13.8084 98.0271 14.2725C99.3744 14.527 99.9433 14.7814 99.9433 15.2455C99.9433 15.8144 99.4044 16.1437 98.2966 16.1437C96.9792 16.1437 96.0212 15.7994 95.2128 14.6767L93.8954 16.4731C94.8685 17.5509 96.096 18.1497 98.4313 18.1497C100.812 18.1497 102.608 17.0419 102.608 15.1108C102.608 13.3743 101.545 12.491 98.8056 11.997C97.3984 11.7425 96.8595 11.4731 96.8595 10.9641C96.8595 10.3952 97.4134 9.97608 98.4762 9.97608C99.7337 9.97608 100.572 10.4401 101.231 11.4282L102.683 9.75153C101.545 8.47908 100.288 7.9701 98.4313 7.9701ZM53.0928 33H58.1227C60.503 33 61.7155 32.0419 61.7155 30.3353C61.7155 29.1377 60.967 28.2246 59.4551 28.015V28C60.8024 27.7904 61.461 26.9072 61.461 25.7845C61.461 24.0629 60.3383 23.1348 57.8982 23.1198H53.0928V33ZM55.5778 27.1617V25.006H57.4341C58.3623 25.006 58.8263 25.3653 58.8263 26.0839C58.8263 26.8024 58.3623 27.1617 57.4341 27.1617H55.5778ZM55.5778 31.1886V29.003H57.6886C58.6167 29.003 59.0808 29.3922 59.0808 30.0808C59.0808 30.7994 58.6167 31.1886 57.6886 31.1886H55.5778ZM71.5298 23.1198H68.9699V29.018C68.9699 30.4401 68.3561 31.1287 67.1136 31.1287C65.8861 31.1287 65.2873 30.4401 65.2873 29.018V23.1198H62.6975V28.9731C62.6975 31.7575 64.2094 33.1497 67.1136 33.1497C70.0328 33.1497 71.5298 31.7575 71.5298 28.9731V23.1198ZM75.6748 23.1198H73.1V33H75.6748V23.1198ZM79.9916 31.009V23.1198H77.4167V33H78.6742H84.9466V31.009H79.9916ZM90.1646 23.1198H88.5479H85.973V33H87.7245H90.1646C93.2634 33 94.955 31.2186 94.955 28.0599C94.955 24.9012 93.2634 23.1198 90.1646 23.1198ZM89.9101 31.0539H88.5479V25.0659H89.9101C91.5868 25.0659 92.3203 26.0839 92.3203 28.0599C92.3203 30.0359 91.5868 31.0539 89.9101 31.0539ZM98.8438 31.009V28.988H102.916V27.1168H98.8438V25.1108H103.964V23.1198H98.8438H96.269V33H97.5265H104.158V31.009H98.8438ZM111.446 33H114.291L111.776 29.1228C113.033 28.6737 113.707 27.7006 113.707 26.2635C113.707 24.2276 112.36 23.1198 109.979 23.1198H107.794H105.264V33H107.794V29.3922H109.336L111.446 33ZM107.794 25.0659H109.545C110.638 25.0659 111.117 25.4401 111.117 26.3084C111.117 27.1916 110.638 27.5659 109.545 27.5659H107.794V25.0659Z" fill="#EDEDEF"/>
<defs>
<linearGradient id="paint0_linear_722_6146" x1="20.0619" y1="6.75684" x2="20.0619" y2="32.4054" gradientUnits="userSpaceOnUse">
<stop stop-color="#9D2DFF"/>
<stop offset="1" stop-color="#BF09FF"/>
</linearGradient>
</defs>
</svg>
