<svg width="178" height="40" viewBox="0 0 178 40" fill="none" xmlns="http://www.w3.org/2000/svg">
<path fill-rule="evenodd" clip-rule="evenodd" d="M36.7341 32.4054L24.0252 19.5245L36.6223 6.75684H30.2929L19.9184 17.2717H7.65862L3.38965 21.753L3.42392 21.7772H19.9184L30.4047 32.4054H36.7341Z" fill="url(#paint0_linear_702_6653)"/>
<path d="M61.8054 18L58.4371 12.9551L61.5958 8.1198H58.8114L57.1048 11.2635L55.3982 8.1198H52.3593L55.518 13.03L52.1647 18H55.0838L56.8802 14.7515L58.7365 18H61.8054ZM68.7527 18H71.597L69.0821 14.1228C70.3395 13.6737 71.0132 12.7006 71.0132 11.2635C71.0132 9.22758 69.6659 8.1198 67.2857 8.1198H65.1H62.5701V18H65.1V14.3922H66.6419L68.7527 18ZM65.1 10.0659H66.8515C67.9443 10.0659 68.4234 10.4401 68.4234 11.3084C68.4234 12.1916 67.9443 12.5659 66.8515 12.5659H65.1V10.0659ZM76.978 8.1198H75.017H72.4421V18H75.017V14.5719H76.978C79.4331 14.5719 80.7954 13.4192 80.7954 11.3982C80.7954 9.27249 79.4331 8.1198 76.978 8.1198ZM76.5738 12.6856H75.017V10.0659H76.5738C77.7116 10.0659 78.2056 10.5 78.2056 11.3683C78.2056 12.2515 77.7116 12.6856 76.5738 12.6856ZM84.5674 16.009V8.1198H81.9925V18H83.25H89.5224V16.009H84.5674ZM100.38 8.1198V12.027H96.6071V8.1198H94.0323V18H96.6071V14.018H100.38V18H102.954V8.1198H100.38ZM109.125 7.9701C106.116 7.9701 104.275 9.87129 104.275 13.0599C104.275 16.2485 106.116 18.1497 109.125 18.1497C112.134 18.1497 113.96 16.2485 113.96 13.0599C113.96 9.87129 112.134 7.9701 109.125 7.9701ZM109.125 9.99105C110.547 9.99105 111.325 11.0389 111.325 13.0599C111.325 15.0808 110.547 16.1287 109.125 16.1287C107.688 16.1287 106.909 15.0808 106.909 13.0599C106.909 11.0389 107.688 9.99105 109.125 9.99105ZM119.713 7.9701C116.704 7.9701 114.863 9.87129 114.863 13.0599C114.863 16.2485 116.704 18.1497 119.713 18.1497C122.722 18.1497 124.548 16.2485 124.548 13.0599C124.548 9.87129 122.722 7.9701 119.713 7.9701ZM119.713 9.99105C121.135 9.99105 121.914 11.0389 121.914 13.0599C121.914 15.0808 121.135 16.1287 119.713 16.1287C118.276 16.1287 117.498 15.0808 117.498 13.0599C117.498 11.0389 118.276 9.99105 119.713 9.99105ZM132.098 18H135.017L131.484 12.1318L134.837 8.1198H131.978L128.445 12.506V8.1198H125.87V18H128.445V15.2156L129.643 13.7635L132.098 18ZM139.371 7.9701C136.661 7.9701 135.119 9.33237 135.119 11.1886C135.119 13.1198 136.631 13.8084 138.967 14.2725C140.314 14.527 140.883 14.7814 140.883 15.2455C140.883 15.8144 140.344 16.1437 139.236 16.1437C137.919 16.1437 136.961 15.7994 136.152 14.6767L134.835 16.4731C135.808 17.5509 137.035 18.1497 139.371 18.1497C141.751 18.1497 143.547 17.0419 143.547 15.1108C143.547 13.3743 142.485 12.491 139.745 11.997C138.338 11.7425 137.799 11.4731 137.799 10.9641C137.799 10.3952 138.353 9.97608 139.416 9.97608C140.673 9.97608 141.511 10.4401 142.17 11.4282L143.622 9.75153C142.485 8.47908 141.227 7.9701 139.371 7.9701ZM57.2844 23.1198H55.6677H53.0928V33H54.8443H57.2844C60.3832 33 62.0748 31.2186 62.0748 28.0599C62.0748 24.9012 60.3832 23.1198 57.2844 23.1198ZM57.0299 31.0539H55.6677V25.0659H57.0299C58.7066 25.0659 59.4401 26.0839 59.4401 28.0599C59.4401 30.0359 58.7066 31.0539 57.0299 31.0539ZM67.8199 22.9701C64.8109 22.9701 62.9696 24.8713 62.9696 28.0599C62.9696 31.2485 64.8109 33.1497 67.8199 33.1497C70.8289 33.1497 72.6552 31.2485 72.6552 28.0599C72.6552 24.8713 70.8289 22.9701 67.8199 22.9701ZM67.8199 24.991C69.242 24.991 70.0205 26.0389 70.0205 28.0599C70.0205 30.0808 69.242 31.1287 67.8199 31.1287C66.3828 31.1287 65.6043 30.0808 65.6043 28.0599C65.6043 26.0389 66.3828 24.991 67.8199 24.991ZM82.7346 30.1707L80.3993 29.512C80.1597 30.6198 79.546 31.1287 78.4382 31.1287C76.9861 31.1287 76.1927 30.0659 76.1927 28.0599C76.1927 26.0389 77.046 24.991 78.4831 24.991C79.5011 24.991 80.0699 25.3803 80.3543 26.6078L82.6148 25.6946C82.1208 23.8234 80.4591 22.9701 78.3933 22.9701C75.4142 22.9701 73.558 24.8713 73.558 28.0599C73.558 31.2485 75.3993 33.1497 78.4082 33.1497C80.504 33.1497 82.1507 32.2365 82.7346 30.1707ZM92.3702 23.1198H89.8104V29.018C89.8104 30.4401 89.1966 31.1287 87.9541 31.1287C86.7265 31.1287 86.1277 30.4401 86.1277 29.018V23.1198H83.5379V28.9731C83.5379 31.7575 85.0499 33.1497 87.9541 33.1497C90.8732 33.1497 92.3702 31.7575 92.3702 28.9731V23.1198ZM105.378 23.1198H101.86L100.318 28.1647L99.7488 30.2455H99.7189L99.165 28.1497L97.6081 23.1198H93.9404V33H96.2309V28.4641L96.156 25.4252H96.1859L98.6261 33H100.707L103.147 25.4252H103.177L103.102 28.4641V33H105.378V23.1198ZM109.691 31.009V28.988H113.763V27.1168H109.691V25.1108H114.811V23.1198H109.691H107.116V33H108.374H115.006V31.009H109.691ZM125.018 23.1198H122.743V28.1048L122.803 29.9611H122.788L122.039 28.4641L118.971 23.1198H116.111V33H118.387V28.015L118.327 26.1587H118.342L119.09 27.6557L122.159 33H125.018V23.1198ZM135.066 23.1198H131.848H126.04V25.1108H129.273V33H131.848V25.1108H135.066V23.1198ZM141.091 33H143.741L140.283 23.1198H137.199L133.726 33H136.316L137.004 30.7695H140.418L141.091 33ZM137.543 29.018L138.292 26.6377L138.696 25.0958H138.726L139.16 26.6527L139.879 29.018H137.543ZM151.419 23.1198H148.2H142.392V25.1108H145.625V33H148.2V25.1108H151.419V23.1198ZM155.016 23.1198H152.442V33H155.016V23.1198ZM161.189 22.9701C158.18 22.9701 156.339 24.8713 156.339 28.0599C156.339 31.2485 158.18 33.1497 161.189 33.1497C164.198 33.1497 166.025 31.2485 166.025 28.0599C166.025 24.8713 164.198 22.9701 161.189 22.9701ZM161.189 24.991C162.612 24.991 163.39 26.0389 163.39 28.0599C163.39 30.0808 162.612 31.1287 161.189 31.1287C159.752 31.1287 158.974 30.0808 158.974 28.0599C158.974 26.0389 159.752 24.991 161.189 24.991ZM176.254 23.1198H173.978V28.1048L174.038 29.9611H174.023L173.275 28.4641L170.206 23.1198H167.347V33H169.622V28.015L169.562 26.1587H169.577L170.326 27.6557L173.395 33H176.254V23.1198Z" fill="#EDEDEF"/>
<defs>
<linearGradient id="paint0_linear_702_6653" x1="20.0619" y1="6.75684" x2="20.0619" y2="32.4054" gradientUnits="userSpaceOnUse">
<stop stop-color="#9D2DFF"/>
<stop offset="1" stop-color="#BF09FF"/>
</linearGradient>
</defs>
</svg>
