<svg width="161" height="40" viewBox="0 0 161 40" fill="none" xmlns="http://www.w3.org/2000/svg">
<path fill-rule="evenodd" clip-rule="evenodd" d="M36.7341 32.4054L24.0252 19.5245L36.6223 6.75684H30.2929L19.9184 17.2717H7.65862L3.38965 21.753L3.42392 21.7772H19.9184L30.4047 32.4054H36.7341Z" fill="white"/>
<path d="M61.7704 26L57.7271 19.9441L61.5188 14.1398H58.1763L56.1278 17.9135L54.0792 14.1398H50.4313L54.223 20.034L50.1977 26H53.7018L55.8582 22.1005L58.0865 26H61.7704ZM70.11 26H73.5243L70.5053 21.3458C72.0148 20.8067 72.8234 19.6386 72.8234 17.9135C72.8234 15.4696 71.2061 14.1398 68.3489 14.1398H65.7253H62.6884V26H65.7253V21.6692H67.5762L70.11 26ZM65.7253 16.4759H67.8278C69.1396 16.4759 69.7146 16.9252 69.7146 17.9674C69.7146 19.0276 69.1396 19.4769 67.8278 19.4769H65.7253V16.4759ZM79.9836 14.1398H77.6296H74.5387V26H77.6296V21.8849H79.9836C82.9307 21.8849 84.566 20.5012 84.566 18.0752C84.566 15.5235 82.9307 14.1398 79.9836 14.1398ZM79.4985 19.6206H77.6296V16.4759H79.4985C80.8642 16.4759 81.4572 16.997 81.4572 18.0393C81.4572 19.0995 80.8642 19.6206 79.4985 19.6206ZM89.0939 23.61V14.1398H86.003V26H87.5125H95.0419V23.61H89.0939ZM108.075 14.1398V18.83H103.546V14.1398H100.456V26H103.546V21.22H108.075V26H111.166V14.1398H108.075ZM118.573 13.9601C114.961 13.9601 112.75 16.2423 112.75 20.0699C112.75 23.8975 114.961 26.1797 118.573 26.1797C122.185 26.1797 124.377 23.8975 124.377 20.0699C124.377 16.2423 122.185 13.9601 118.573 13.9601ZM118.573 16.386C120.28 16.386 121.214 17.6439 121.214 20.0699C121.214 22.4958 120.28 23.7538 118.573 23.7538C116.848 23.7538 115.913 22.4958 115.913 20.0699C115.913 17.6439 116.848 16.386 118.573 16.386ZM131.283 13.9601C127.671 13.9601 125.461 16.2423 125.461 20.0699C125.461 23.8975 127.671 26.1797 131.283 26.1797C134.895 26.1797 137.087 23.8975 137.087 20.0699C137.087 16.2423 134.895 13.9601 131.283 13.9601ZM131.283 16.386C132.99 16.386 133.925 17.6439 133.925 20.0699C133.925 22.4958 132.99 23.7538 131.283 23.7538C129.558 23.7538 128.623 22.4958 128.623 20.0699C128.623 17.6439 129.558 16.386 131.283 16.386ZM146.15 26H149.654L145.413 18.9558L149.438 14.1398H146.006L141.765 19.405V14.1398H138.674V26H141.765V22.6576L143.203 20.9145L146.15 26ZM154.88 13.9601C151.627 13.9601 149.776 15.5954 149.776 17.8237C149.776 20.1418 151.591 20.9684 154.395 21.5255C156.012 21.831 156.695 22.1365 156.695 22.6935C156.695 23.3764 156.048 23.7717 154.718 23.7717C153.137 23.7717 151.987 23.3584 151.016 22.0107L149.435 24.1671C150.603 25.4609 152.077 26.1797 154.88 26.1797C157.737 26.1797 159.894 24.8499 159.894 22.5318C159.894 20.4473 158.618 19.387 155.329 18.794C153.64 18.4885 152.993 18.1651 152.993 17.5541C152.993 16.8712 153.658 16.3681 154.934 16.3681C156.443 16.3681 157.45 16.9252 158.24 18.1112L159.983 16.0985C158.618 14.5711 157.108 13.9601 154.88 13.9601Z" fill="#EDEDEF"/>
</svg>
